<?xml version="1.0" standalone="no"?>
<!DOCTYPE svg PUBLIC "-//W3C//DTD SVG 20010904//EN"
 "http://www.w3.org/TR/2001/REC-SVG-20010904/DTD/svg10.dtd">
<svg version="1.0" xmlns="http://www.w3.org/2000/svg"
 width="256.000000pt" height="256.000000pt" viewBox="0 0 256.000000 256.000000"
 preserveAspectRatio="xMidYMid meet">

<g transform="translate(0.000000,256.000000) scale(0.100000,-0.100000)"
fill="#000000" stroke="none">
<path d="M880 2467 c-19 -6 -58 -34 -86 -62 l-51 -51 -37 19 c-50 26 -116 32
-173 16 -58 -16 -144 -96 -159 -149 -9 -33 -13 -35 -60 -41 -70 -9 -121 -36
-154 -81 -53 -73 -51 -169 6 -244 45 -59 48 -109 5 -119 -15 -3 -41 -19 -57
-36 -24 -26 -29 -39 -32 -99 -5 -80 5 -100 49 -100 24 0 29 -5 33 -32 3 -18
21 -265 41 -548 21 -292 41 -520 47 -527 8 -10 66 -13 238 -13 l228 0 4 -125
3 -125 33 -32 32 -33 378 0 377 0 25 47 c14 27 27 48 30 48 3 0 16 -21 30 -48
l25 -47 377 0 378 0 32 33 33 32 0 290 0 290 -33 32 -32 33 -315 3 -315 3 5
42 c3 23 12 155 20 292 8 138 18 280 21 318 l6 67 33 0 c48 0 58 18 53 101 -4
67 -6 73 -41 105 -42 39 -46 63 -17 119 23 46 25 92 6 138 -14 35 -69 87 -90
87 -8 0 -16 16 -19 34 -14 88 -65 145 -150 167 -60 17 -126 1 -179 -42 -22
-17 -39 -25 -43 -19 -11 17 -87 53 -140 65 -44 10 -51 15 -59 46 -14 47 -101
132 -152 147 -49 14 -106 14 -154 -1z m150 -89 c49 -25 90 -83 90 -128 0 -36
18 -50 63 -50 70 0 119 -21 170 -74 52 -54 69 -55 94 -5 25 50 61 74 114 74
42 0 53 -5 81 -32 28 -29 33 -40 34 -87 2 -66 7 -76 45 -76 66 0 101 -79 59
-133 -13 -16 -20 -40 -20 -66 l0 -41 -740 0 -740 0 0 58 c0 53 -3 61 -35 92
-56 54 -59 123 -9 173 33 33 75 42 130 27 55 -16 74 -3 74 47 0 99 96 177 194
159 18 -4 51 -22 74 -42 53 -45 83 -43 97 6 12 41 74 107 107 113 50 9 75 6
118 -15z m505 -1736 c34 -65 44 -77 65 -77 21 0 31 12 65 77 l40 78 335 0
c248 0 339 -3 348 -12 17 -17 17 -519 0 -536 -9 -9 -100 -12 -348 -12 l-335 0
-40 78 c-34 65 -44 77 -65 77 -21 0 -31 -12 -65 -77 l-40 -78 -335 0 c-248 0
-339 3 -348 12 -17 17 -17 519 0 536 9 9 100 12 348 12 l335 0 40 -78z"/>
<path d="M613 2149 c-30 -30 -11 -62 44 -73 38 -9 51 -23 58 -62 8 -43 -14
-77 -60 -89 -46 -14 -65 -37 -49 -62 16 -25 87 -22 121 4 52 38 68 70 68 133
0 62 -16 95 -66 133 -33 24 -100 33 -116 16z"/>
<path d="M970 2065 c-28 -34 5 -115 64 -159 39 -29 133 -29 172 0 46 34 67 70
68 115 2 78 -57 81 -79 4 -12 -46 -46 -68 -89 -60 -39 7 -53 20 -62 58 -3 18
-11 38 -16 45 -14 17 -43 15 -58 -3z"/>
<path d="M892 628 c-17 -17 -17 -359 0 -376 17 -17 519 -17 536 0 17 17 17
359 0 376 -17 17 -519 17 -536 0z"/>
<path d="M1772 628 c-17 -17 -17 -359 0 -376 17 -17 519 -17 536 0 17 17 17
359 0 376 -17 17 -519 17 -536 0z"/>
</g>
</svg>
