<svg width="101" height="101" viewBox="0 0 101 101" fill="none" xmlns="http://www.w3.org/2000/svg">
<path d="M97.9365 45.0416L55.0417 2.14689C53.726 0.8311 51.8839 0.041626 50.0417 0.041626C48.1996 0.041626 46.3575 0.8311 45.0417 2.14689L35.8312 11.3574L46.6207 22.1469C47.6733 21.6206 48.726 21.3574 50.0417 21.3574C54.5154 21.3574 57.9365 24.7785 57.9365 29.2522C57.9365 30.5679 57.6733 31.6206 57.147 32.6732L67.6733 43.1995C68.726 42.6732 69.7786 42.41 71.0944 42.41C75.5681 42.41 78.9891 45.8311 78.9891 50.3048C78.9891 54.7785 75.5681 58.1995 71.0944 58.1995C66.6207 58.1995 63.1996 54.7785 63.1996 50.3048C63.1996 48.989 63.4628 47.9364 63.9891 46.8837L53.4628 36.3574C53.1996 36.3574 52.9365 36.6206 52.6733 36.6206V63.989C55.8312 65.0416 57.9365 67.9364 57.9365 71.3574C57.9365 75.8311 54.5154 79.2521 50.0417 79.2521C45.5681 79.2521 42.147 75.8311 42.147 71.3574C42.147 67.9364 44.2523 65.0416 47.4102 63.989V36.3574C44.2523 35.3048 42.147 32.41 42.147 28.989C42.147 27.6732 42.4102 26.6206 42.9365 25.5679L32.147 14.7785L2.14701 45.0416C0.831222 46.3574 0.041748 48.1995 0.041748 50.0416C0.041748 51.8837 0.831222 53.7258 2.14701 55.0416L45.0417 97.9364C46.3575 99.2522 48.1996 100.042 50.0417 100.042C51.8839 100.042 53.726 99.2522 55.0417 97.9364L97.9365 55.0416C99.2523 53.7258 100.042 51.8837 100.042 50.0416C100.042 48.1995 99.2523 46.3574 97.9365 45.0416Z" fill="#F4511E"/>
</svg>
