<svg width="660" height="199" viewBox="0 0 660 199" fill="none" xmlns="http://www.w3.org/2000/svg">
<path d="M455.545 0H382.774C375.258 0 369.144 6.11429 369.144 13.6295V159.708C369.144 161.277 370.416 162.55 371.986 162.55H377.751V169.003C377.751 170.573 379.023 171.845 380.593 171.845H395.206C396.776 171.845 398.048 170.573 398.048 169.003V162.55H440.27V169.003C440.27 170.573 441.542 171.845 443.112 171.845H457.725C459.295 171.845 460.567 170.573 460.567 169.003V162.55H466.332C467.902 162.55 469.174 161.277 469.174 159.708V13.6295C469.175 6.11429 463.06 0 455.545 0ZM392.365 166.162H383.436V162.55H392.365V166.162ZM454.884 166.162H445.954V162.55H454.884V166.162ZM463.491 156.866H374.828V13.6295C374.828 9.24798 378.393 5.68384 382.774 5.68384H455.545C459.927 5.68384 463.491 9.24836 463.491 13.6295V156.866Z" fill="#24166A"/>
<path d="M451.556 32.5377H386.763C385.193 32.5377 383.921 33.8101 383.921 35.3796V52.4304C383.921 53.9999 385.193 55.2723 386.763 55.2723H451.556C453.126 55.2723 454.398 53.9999 454.398 52.4304V35.3796C454.398 33.8101 453.126 32.5377 451.556 32.5377ZM448.714 49.5884H389.605V38.2215H448.714V49.5884Z" fill="#24166A"/>
<path d="M419.16 74.8383C414.433 74.8383 410.587 78.6839 410.587 83.411C410.587 88.1381 414.433 91.9841 419.16 91.9841C423.887 91.9841 427.732 88.1384 427.732 83.411C427.732 78.6836 423.886 74.8383 419.16 74.8383ZM419.16 86.3003C417.567 86.3003 416.271 85.0044 416.271 83.411C416.271 81.8176 417.567 80.5221 419.16 80.5221C420.753 80.5221 422.049 81.818 422.049 83.411C422.049 85.004 420.753 86.3003 419.16 86.3003Z" fill="#24166A"/>
<path d="M419.16 64.8583C408.93 64.8583 400.607 73.1809 400.607 83.4111C400.607 93.6412 408.93 101.964 419.16 101.964C429.39 101.964 437.713 93.6412 437.713 83.4111C437.713 73.1809 429.39 64.8583 419.16 64.8583ZM419.16 96.2804C412.063 96.2804 406.29 90.5072 406.29 83.4111C406.29 76.315 412.063 70.5421 419.16 70.5421C426.256 70.5421 432.029 76.315 432.029 83.4111C432.029 90.5072 426.256 96.2804 419.16 96.2804Z" fill="#24166A"/>
<path d="M398.901 114.392C398.901 115.962 400.173 117.234 401.742 117.234H428.419C429.989 117.234 431.261 115.962 431.261 114.392C431.261 112.823 429.989 111.55 428.419 111.55H401.742C400.173 111.55 398.901 112.823 398.901 114.392Z" fill="#24166A"/>
<path d="M436.019 111.606C434.828 111.859 433.913 112.831 433.757 114.044C433.606 115.222 434.242 116.396 435.299 116.929C437.584 118.08 440.146 115.729 439.222 113.36C438.727 112.09 437.357 111.343 436.019 111.606C435.841 111.643 436.387 111.534 436.019 111.606Z" fill="#24166A"/>
<path d="M436.576 132.497H401.742C400.173 132.497 398.901 133.769 398.901 135.339C398.901 136.908 400.173 138.181 401.742 138.181H436.576C438.146 138.181 439.418 136.908 439.418 135.339C439.418 133.769 438.146 132.497 436.576 132.497Z" fill="#24166A"/>
<path d="M436.576 122.024H401.742C400.173 122.024 398.901 123.296 398.901 124.866C398.901 126.435 400.173 127.708 401.742 127.708H436.576C438.146 127.708 439.418 126.435 439.418 124.866C439.418 123.296 438.146 122.024 436.576 122.024Z" fill="#24166A"/>
<path d="M643.068 155.73H541.082C540.565 155.73 540.072 155.51 539.728 155.124C539.383 154.738 539.219 154.223 539.277 153.709L546.312 91.6787C546.416 90.7607 547.193 90.0668 548.117 90.0668H650.102C650.619 90.0668 651.112 90.2873 651.457 90.6735C651.801 91.0597 651.965 91.5741 651.907 92.0881L644.872 154.119C644.769 155.037 643.992 155.73 643.068 155.73ZM549.739 93.6996L543.117 152.098H641.446L648.068 93.6996H549.739Z" fill="#24166A"/>
<path d="M486.99 159.164H531.547L539.449 89.4801C539.868 85.786 542.988 83 546.706 83H651.872C653.949 83 655.935 83.8889 657.319 85.4387C658.703 86.9884 659.362 89.0613 659.128 91.1261L651.195 161.084V167.838C651.195 171.12 648.524 173.79 645.243 173.79H491.127C487.845 173.79 485.174 171.12 485.174 167.838V160.981C485.174 159.977 485.987 159.164 486.99 159.164ZM532.603 162.797C533.097 163.338 533.805 163.68 534.593 163.68H555.597C556.386 163.68 557.094 163.338 557.588 162.797H533.169H532.603ZM654.609 87.8581C653.903 87.0676 652.931 86.6324 651.872 86.6324H546.705C544.837 86.6324 543.269 88.0325 543.058 89.8892L535.203 159.164H647.756L655.519 90.7167C655.638 89.6636 655.315 88.6486 654.609 87.8581ZM645.243 170.157C646.522 170.157 647.562 169.116 647.562 167.838V162.797H605.017V167.504C605.017 168.967 606.207 170.157 607.67 170.157H645.243ZM488.807 167.838C488.807 169.117 489.847 170.157 491.126 170.157H601.979C601.601 169.35 601.384 168.453 601.384 167.504V162.797H561.66C560.878 165.406 558.457 167.313 555.598 167.313H534.594C531.734 167.313 529.314 165.406 528.531 162.797H488.808V167.838H488.807Z" fill="#24166A"/>
<path d="M641.174 164.661H644.443C645.446 164.661 646.26 165.474 646.26 166.477C646.26 167.48 645.446 168.294 644.443 168.294H641.174C640.171 168.294 639.358 167.48 639.358 166.477C639.358 165.474 640.171 164.661 641.174 164.661Z" fill="#24166A"/>
<path d="M633 164.661H636.088C637.091 164.661 637.904 165.474 637.904 166.477C637.904 167.48 637.091 168.294 636.088 168.294H633C631.997 168.294 631.184 167.48 631.184 166.477C631.184 165.474 631.997 164.661 633 164.661Z" fill="#24166A"/>
<path d="M612.475 164.66C612.951 164.66 613.42 164.857 613.758 165.191C614.096 165.532 614.292 165.997 614.292 166.477C614.292 166.956 614.096 167.425 613.758 167.763C613.42 168.101 612.951 168.293 612.475 168.293C611.996 168.293 611.527 168.101 611.189 167.763C610.852 167.425 610.659 166.956 610.659 166.477C610.659 165.997 610.852 165.532 611.189 165.191C611.527 164.857 611.996 164.66 612.475 164.66Z" fill="#24166A"/>
<path d="M614.94 101.598H579.538C578.535 101.598 577.721 100.785 577.721 99.7816C577.721 98.7786 578.535 97.9652 579.538 97.9652H614.94C615.943 97.9652 616.757 98.7786 616.757 99.7816C616.757 100.785 615.943 101.598 614.94 101.598Z" fill="#24166A"/>
<path d="M632.411 110.102H560.134C559.131 110.102 558.318 109.289 558.318 108.286C558.318 107.283 559.131 106.469 560.134 106.469H632.411C633.414 106.469 634.228 107.283 634.228 108.286C634.228 109.289 633.415 110.102 632.411 110.102Z" fill="#24166A"/>
<path d="M631.449 114.974C632.452 114.974 633.265 115.787 633.265 116.79C633.265 117.793 632.452 118.607 631.449 118.607H559.172C558.169 118.607 557.355 117.793 557.355 116.79C557.355 115.787 558.169 114.974 559.172 114.974H631.449Z" fill="#24166A"/>
<path d="M630.482 123.474C631.485 123.474 632.299 124.288 632.299 125.291C632.299 126.294 631.485 127.107 630.482 127.107H558.205C557.202 127.107 556.389 126.294 556.389 125.291C556.389 124.288 557.202 123.474 558.205 123.474H630.482Z" fill="#24166A"/>
<path d="M629.52 131.979C630.523 131.979 631.336 132.792 631.336 133.795C631.336 134.798 630.523 135.611 629.52 135.611H557.243C556.24 135.611 555.426 134.798 555.426 133.795C555.426 132.792 556.24 131.979 557.243 131.979H629.52Z" fill="#24166A"/>
<path d="M628.553 140.483C629.556 140.483 630.37 141.296 630.37 142.299C630.37 143.302 629.556 144.116 628.553 144.116H556.276C555.273 144.116 554.46 143.302 554.46 142.299C554.46 141.296 555.273 140.483 556.276 140.483H628.553Z" fill="#24166A"/>
<path d="M164.338 172H134.01C133.603 172 133.225 171.783 133.018 171.43L131.343 168.569C131.238 168.396 131.176 168.193 131.174 167.976C131.174 167.975 131.174 167.975 131.174 167.974C131.174 167.974 131.174 167.973 131.174 167.972C131.174 167.971 131.174 167.971 131.174 167.97C131.174 167.969 131.174 167.969 131.174 167.968C131.174 167.968 131.174 167.966 131.174 167.965V99.1908C131.174 98.2231 131.936 97.2454 132.666 96.5303L131.841 95.6845C131.63 95.4682 131.511 95.1775 131.511 94.8744V92.86C131.511 92.2209 132.027 91.703 132.663 91.703H140.203L149.207 88.0832C149.798 87.8455 150.468 88.1348 150.704 88.7276C150.94 89.3209 150.653 89.9946 150.063 90.2317L146.403 91.7028H165.686C166.322 91.7028 166.838 92.2207 166.838 92.8598V94.8742C166.838 95.1773 166.719 95.468 166.508 95.6843L165.683 96.5301C166.413 97.2451 167.174 98.2228 167.174 99.1906V167.965C167.174 167.966 167.174 167.968 167.174 167.968C167.174 167.969 167.174 167.969 167.174 167.97C167.174 167.971 167.174 167.971 167.174 167.972C167.174 167.973 167.174 167.974 167.174 167.974C167.174 167.975 167.174 167.975 167.174 167.976C167.173 168.193 167.111 168.396 167.005 168.569L165.331 171.43C165.124 171.783 164.746 172 164.338 172ZM134.669 169.686H163.68L164.01 169.122H134.338L134.669 169.686ZM133.477 166.808H164.872V99.2209C164.795 98.9404 164.221 98.2902 163.596 97.7577H134.753C134.128 98.2897 133.553 98.9404 133.477 99.2209V166.808ZM134.831 95.4437H163.518L164.535 94.4014V94.0168H140.452C140.434 94.0173 140.416 94.0173 140.399 94.0168H133.814V94.4014L134.831 95.4437ZM140.194 157.422C140.032 157.422 139.867 157.387 139.712 157.315C139.185 157.07 138.921 156.469 139.098 155.913L146.608 132.227H141.021C140.66 132.227 140.319 132.057 140.102 131.767C139.884 131.477 139.815 131.102 139.914 130.752L145.975 109.434C146.116 108.938 146.568 108.595 147.082 108.595H157.274C157.654 108.595 158.01 108.784 158.225 109.099C158.439 109.414 158.485 109.816 158.347 110.172L153.172 123.546H159.754C160.172 123.546 160.557 123.774 160.76 124.141C160.963 124.508 160.952 124.958 160.731 125.314L141.172 156.876C140.956 157.225 140.581 157.422 140.194 157.422ZM142.547 129.913H148.184C148.551 129.913 148.896 130.09 149.113 130.388C149.33 130.686 149.392 131.07 149.28 131.422L144.09 147.79L157.68 125.86H151.489C151.109 125.86 150.754 125.671 150.539 125.356C150.324 125.04 150.279 124.639 150.416 124.283L155.591 110.909H147.95L142.547 129.913Z" fill="#24166A"/>
<path d="M74.145 91.4186C75.5594 91.4186 76.7055 90.2725 76.7055 88.8581V78.5817C76.7055 77.1673 75.5594 76.0212 74.145 76.0212H22.1832C20.7688 76.0212 19.6227 77.1673 19.6227 78.5817V88.8581C19.6227 90.2725 20.7688 91.4186 22.1832 91.4186H74.145ZM24.7438 81.1426H71.5844V86.2979H24.7438V81.1426Z" fill="#24166A"/>
<path d="M120.023 160.861V145.931C123.074 145.824 125.524 143.316 125.524 140.24C125.524 137.097 122.966 134.539 119.823 134.539H91.5482V66.0957C91.5482 59.9774 86.5708 55 80.4525 55H11.0957C4.97737 55 0 59.9774 0 66.0957V158.596C0 164.714 4.97737 169.692 11.0957 169.692H37.8063C40.5912 171.317 43.8253 172.252 47.2756 172.252H119.822C122.966 172.252 125.523 169.695 125.523 166.551C125.524 163.476 123.073 160.967 120.023 160.861ZM11.0957 164.571C7.80148 164.571 5.1211 161.891 5.1211 158.596V66.0957C5.1211 62.8015 7.80148 60.1211 11.0957 60.1211H80.4521C83.7463 60.1211 86.4267 62.8015 86.4267 66.0957V134.539H68.0075V130.797H28.3204V135.918H40.2102C33.3039 138.72 28.419 145.496 28.419 153.396C28.419 157.576 29.7884 161.441 32.0987 164.571H11.0957ZM119.823 167.132H47.2759C39.7018 167.132 33.5405 160.97 33.5405 153.396C33.5405 145.822 39.7022 139.661 47.2759 139.661H119.823C120.143 139.661 120.402 139.921 120.402 140.241C120.402 140.56 120.142 140.821 119.823 140.821H47.2759C40.3416 140.821 34.7002 146.462 34.7002 153.396C34.7002 160.33 40.3416 165.972 47.2759 165.972H119.823C120.143 165.972 120.402 166.232 120.402 166.552C120.402 166.871 120.142 167.132 119.823 167.132ZM114.902 152.718V154.074H47.1879V159.196H114.902V160.851H47.2759C43.1654 160.851 39.8213 157.507 39.8213 153.396C39.8213 149.286 43.1654 145.942 47.2759 145.942H114.902V147.597H47.1879V152.718H114.902Z" fill="#24166A"/>
<path d="M74.145 120.782H22.1832V125.903H74.145V120.782Z" fill="#24166A"/>
<path d="M250.839 127.001L249.424 140.369C249.309 141.448 249.658 142.524 250.384 143.33C251.109 144.137 252.143 144.597 253.228 144.597H293.677C294.761 144.597 295.795 144.136 296.521 143.33C297.246 142.524 297.595 141.448 297.482 140.369L296.066 127.001H346.449C354.291 127.001 360.67 120.621 360.67 112.779V14.2212C360.67 6.37941 354.29 0 346.449 0H197.396C189.554 0 183.174 6.37941 183.174 14.2212V112.779C183.174 120.621 189.554 127.001 197.396 127.001H250.839ZM289.425 136.946H257.48L258.532 127.001H288.371L289.425 136.946ZM197.396 7.65101H346.449C350.072 7.65101 353.019 10.5982 353.019 14.2212V100.988H190.825V14.2212C190.825 10.5982 193.773 7.65101 197.396 7.65101ZM190.825 112.779V108.639H353.018V112.779C353.018 116.402 350.071 119.35 346.448 119.35H197.396C193.773 119.35 190.825 116.402 190.825 112.779Z" fill="#24166A"/>
<path d="M346.343 170.299C347.037 169.157 347.084 167.735 346.467 166.549L338.912 152.013C338.253 150.746 336.945 149.952 335.517 149.952H208.327C206.9 149.952 205.591 150.746 204.932 152.013L197.377 166.549C196.761 167.735 196.807 169.157 197.501 170.299C198.195 171.442 199.435 172.139 200.771 172.139H343.073C344.409 172.14 345.649 171.442 346.343 170.299ZM207.071 164.489L210.65 157.603H333.194L336.773 164.489H207.071Z" fill="#24166A"/>
<path d="M353.019 179.024H346.898C338.039 179.024 330.831 186.232 330.831 195.091C330.831 197.204 332.544 198.917 334.657 198.917H365.259C367.372 198.917 369.085 197.204 369.085 195.091C369.085 186.232 361.878 179.024 353.019 179.024ZM339.403 191.266C340.799 188.543 343.635 186.675 346.898 186.675H353.019C356.282 186.675 359.118 188.543 360.514 191.266H339.403Z" fill="#24166A"/>
<path d="M258.162 82.1685L281.724 29.6073C282.338 28.2371 283.947 27.6243 285.317 28.2385C286.573 28.8015 287.192 30.2001 286.814 31.4847L286.685 31.8315L263.123 84.3927C262.509 85.7629 260.901 86.3757 259.53 85.7615C258.275 85.1985 257.655 83.7999 258.034 82.5153L258.162 82.1685L281.724 29.6073L258.162 82.1685ZM236.971 55.0776L252.377 39.6717C253.438 38.61 255.16 38.61 256.221 39.6717C257.187 40.6369 257.274 42.1473 256.485 43.2116L256.221 43.5165L242.738 57L256.221 70.4835C257.283 71.5452 257.283 73.2666 256.221 74.3283C255.256 75.2935 253.746 75.3812 252.682 74.5915L252.377 74.3283L236.971 58.9224C236.005 57.9572 235.918 56.4468 236.707 55.3825L236.971 55.0776L252.377 39.6717L236.971 55.0776ZM288.626 39.6717C289.591 38.7065 291.101 38.6188 292.166 39.4085L292.471 39.6717L307.876 55.0776C308.842 56.0428 308.929 57.5532 308.14 58.6175L307.876 58.9224L292.471 74.3283C291.409 75.39 289.687 75.39 288.626 74.3283C287.661 73.3631 287.573 71.8527 288.363 70.7884L288.626 70.4835L302.109 57L288.626 43.5165C287.564 42.4548 287.564 40.7334 288.626 39.6717Z" fill="#24166A"/>
</svg>
