<svg width="91" height="101" viewBox="0 0 91 101" fill="none" xmlns="http://www.w3.org/2000/svg">
<path d="M90.5 33.5834C90.5 84.8334 45.5 100.333 45.5 100.333C45.5 100.333 0.5 84.8334 0.5 33.5834C0.5 27.3334 1 22.0834 1.5 17.8334C2.25 11.5834 6.5 6.58337 12.5 5.08337C20.25 2.83337 32.5 0.333374 45.5 0.333374C58.5 0.333374 70.75 2.83337 78.75 5.08337C84.75 6.58337 89 11.8334 89.75 17.8334C90 22.0834 90.5 27.5834 90.5 33.5834Z" fill="#5D4037"/>
<path d="M45.5 7.83337C57.75 7.83337 69.25 10.3334 76.75 12.3334C79.75 13.0834 81.75 15.5834 82.25 18.8334C82.75 23.5834 83 28.5834 83 33.5834C83 72.5834 54.25 88.3334 45.5 92.0834C36.75 88.0834 8 72.3334 8 33.5834C8 28.5834 8.25 23.5834 8.75 18.8334C9 15.5834 11.25 13.0834 14.25 12.3334C21.75 10.3334 33.25 7.83337 45.5 7.83337ZM45.5 0.333374C32.5 0.333374 20.25 2.83337 12.25 5.08337C6.5 6.58337 2 11.8334 1.5 17.8334C1 22.0834 0.5 27.5834 0.5 33.5834C0.5 84.8334 45.5 100.333 45.5 100.333C45.5 100.333 90.5 84.8334 90.5 33.5834C90.5 27.3334 90 22.0834 89.5 17.8334C88.75 11.5834 84.5 6.58337 78.5 5.08337C70.75 2.83337 58.5 0.333374 45.5 0.333374Z" fill="#4CAF50"/>
<path d="M43 60.3334H48V80.3334H43V60.3334Z" fill="#DCEDC8"/>
<path d="M45.5 15.3334C45.5 15.3334 30.5 27.8334 30.5 47.8334C30.5 60.8334 38.75 69.0834 43 72.8334L45.5 65.3334L48 72.8334C52.25 69.0834 60.5 60.8334 60.5 47.8334C60.5 27.8334 45.5 15.3334 45.5 15.3334Z" fill="#4CAF50"/>
<path d="M45.5 15.3334C45.5 15.3334 30.5 27.8334 30.5 47.8334C30.5 60.8334 38.75 69.0834 43 72.8334L45.5 65.3334V15.3334Z" fill="#81C784"/>
</svg>
