<svg width="186" height="101" viewBox="0 0 186 101" fill="none" xmlns="http://www.w3.org/2000/svg">
<path d="M0.00771577 93.4536H7.41486V66.1205L17.7038 89.4877C18.9731 92.4004 20.7091 93.4305 24.1157 93.4305C27.5222 93.4305 29.1888 92.4004 30.458 89.4877L40.747 66.7185V93.4536H48.1541V65.4531C48.1541 62.7641 47.0855 61.4602 44.8788 60.7889C39.6051 59.13 36.0635 60.5613 34.4625 64.153L23.9112 87.9175L13.6916 64.153C12.1562 60.5651 8.55294 59.13 3.27535 60.7889C1.06863 61.4602 0 62.7603 0 65.4492V93.4498H0.00771577V93.4536Z" fill="#00796B"/>
<path d="M51.8538 71.2322H59.2609V86.8759C59.203 87.6475 59.5078 89.696 63.0802 89.75C64.9011 89.7809 73.9633 89.75 74.0752 89.75V71.2322H81.4823C81.5132 71.2322 81.4823 94.256 81.4823 94.3525C81.5209 100.031 74.4301 100.764 71.1702 100.861H51.8576V97.1572C51.8962 97.1572 70.3253 97.161 70.3793 97.1572C74.5767 96.7135 74.079 94.4026 74.079 93.7005V93.4536H62.4591C56.0164 93.3957 51.9078 90.5563 51.8615 87.3196C51.8538 87.0187 52.0004 71.3711 51.8538 71.2322Z" fill="#00796B"/>
<path d="M85.186 93.4536H103.731C106.161 93.4536 108.522 92.9444 110.397 92.0648C113.522 90.6296 114.811 88.6891 114.811 86.139V80.8615C114.811 75.1672 107.751 74.9357 103.7 74.9357H96.2929C93.3802 74.9357 92.9365 73.1765 92.5893 71.2322V67.5286C92.9365 66.0472 93.5846 64.0565 96.1501 63.825C99.1323 63.825 114.807 63.825 114.807 63.825V60.1215H97.1918C94.2791 60.1215 85.1783 60.4687 85.1783 67.5286V72.1079C85.1783 75.3485 88.0254 77.9873 94.2058 78.6355C94.9002 78.6818 95.5946 78.728 96.2852 78.728C96.2852 78.728 103.484 78.5892 103.692 78.6355C107.859 78.6355 107.396 81.8761 107.396 82.339V86.0426C107.396 86.5518 107.28 89.7462 103.65 89.7462C103.372 89.7462 85.1744 89.7462 85.1744 89.7462V93.4536H85.186Z" fill="#F57F17"/>
<path d="M155.55 85.8882C155.55 90.3595 158.077 92.8672 164.778 93.3687C165.403 93.4111 166.032 93.4497 166.661 93.4497H185.179V89.7461H168.069C164.246 89.7461 162.957 88.1412 162.957 85.8458V60.1176H155.55V85.8882V85.8882Z" fill="#F57F17"/>
<path d="M118.453 86.0465V67.5286C118.453 63.5936 120.381 60.8776 125.844 60.1215H128.437H141.735H143.76C149.223 60.8776 151.785 63.5897 151.785 67.5286V85.977C151.785 89.1675 150.955 90.8804 148.251 91.9915L153.991 97.1533H145.658L141.53 93.4497H136.681L128.441 93.496C127.248 93.496 125.991 93.3301 124.61 92.9521C120.466 91.8217 118.453 89.6459 118.453 86.0465ZM125.86 86.0465C126.238 87.8481 127.684 89.75 130.258 89.75H137.449L133.329 86.0465H141.719L143.722 87.906C143.722 87.906 144.439 87.3196 144.439 86.0465C144.439 84.7733 144.378 67.5286 144.378 67.5286C143.999 65.8543 142.302 63.825 139.794 63.825H130.261C127.372 63.825 125.864 65.9392 125.864 67.9067L125.86 86.0465Z" fill="#F57F17"/>
<path d="M178.231 56.2173C174.253 56.1092 171.217 56.4796 168.621 57.5714C167.884 57.8839 166.707 57.8916 166.584 58.8175C166.989 59.2418 167.05 59.8784 167.374 60.3992C167.992 61.4023 169.041 62.7487 169.975 63.4508C170.997 64.2224 172.05 65.048 173.142 65.7154C175.086 66.8998 177.258 67.5787 179.133 68.767C180.237 69.4652 181.332 70.3526 182.412 71.1396C182.945 71.5331 183.3 72.1388 183.994 72.3857C183.994 72.3471 183.994 72.3124 183.994 72.2738C183.632 71.8108 183.535 71.1743 183.203 70.6882C182.713 70.1982 182.223 69.7083 181.733 69.2183C180.298 67.3125 178.47 65.6344 176.533 64.2455C174.986 63.1345 171.525 61.6337 170.877 59.836C170.839 59.7974 170.804 59.7627 170.762 59.7202C171.857 59.5968 173.142 59.1994 174.153 58.9294C175.854 58.4741 177.37 58.5937 179.126 58.1385C179.916 57.9109 180.707 57.6871 181.498 57.4595C181.498 57.309 181.498 57.1586 181.498 57.0081C180.611 56.0977 179.974 54.894 179.01 54.0684C176.475 51.9119 173.713 49.7592 170.87 47.9614C169.292 46.9661 167.34 46.3179 165.669 45.473C165.106 45.1876 164.118 45.041 163.748 44.5703C162.868 43.4515 162.394 42.028 161.715 40.7278C160.295 37.9965 158.899 35.0105 157.645 32.1363C156.785 30.1765 156.225 28.2399 155.156 26.4807C150.022 18.0396 144.493 12.9433 135.936 7.93581C134.116 6.87103 131.92 6.45052 129.602 5.89884C128.356 5.82554 127.114 5.74838 125.867 5.67123C125.107 5.35102 124.32 4.42513 123.603 3.97376C120.767 2.17984 113.491 -1.71663 111.393 3.40665C110.066 6.63956 113.376 9.79531 114.56 11.4349C115.389 12.5846 116.454 13.8731 117.048 15.1693C117.438 16.0181 117.507 16.8707 117.839 17.7696C118.661 19.984 119.961 22.507 121.026 24.5556C121.562 25.5934 122.156 26.6813 122.835 27.6072C123.252 28.1743 123.965 28.425 124.081 29.3046C123.383 30.2807 123.344 31.7968 122.951 33.0391C121.184 38.6137 121.851 45.5386 124.421 49.6589C125.208 50.9242 127.067 53.6402 129.621 52.5986C131.855 51.6881 131.357 48.868 131.994 46.3797C132.136 45.8164 132.048 45.4036 132.333 45.0255C132.333 45.0641 132.333 45.0988 132.333 45.1413C133.012 46.4954 133.687 47.8572 134.37 49.2113C135.879 51.638 138.552 54.1726 140.813 55.8855C141.986 56.7728 142.912 58.3082 144.432 58.8252C144.432 58.7866 144.432 58.7519 144.432 58.7095C144.393 58.7095 144.358 58.7095 144.316 58.7095C144.023 58.2504 143.56 58.0613 143.185 57.691C142.302 56.823 141.314 55.7466 140.585 54.7513C138.525 51.9543 136.704 48.8911 135.045 45.7045C134.254 44.1807 133.564 42.5063 132.896 40.9555C132.638 40.3575 132.642 39.4547 132.106 39.1461C131.373 40.2803 130.3 41.1985 129.733 42.5372C128.83 44.6783 128.711 47.294 128.379 49.9984C128.178 50.0678 128.267 50.0215 128.151 50.1102C126.577 49.7283 126.022 48.1118 125.435 46.7191C123.954 43.2008 123.68 37.5374 124.984 33.4904C125.32 32.4411 126.843 29.1426 126.23 28.1743C125.937 27.206 124.965 26.6466 124.425 25.9097C123.749 24.9992 123.082 23.7956 122.615 22.7424C121.404 19.9994 120.254 16.8089 118.977 14.0351C118.368 12.708 117.338 11.3693 116.489 10.1927C115.551 8.8887 114.498 7.92809 113.773 6.35022C113.514 5.79082 113.163 4.89194 113.545 4.31325C113.669 3.92361 113.839 3.76157 114.224 3.63426C114.88 3.12502 116.705 3.80015 117.392 4.08564C119.205 4.83793 120.717 5.55549 122.253 6.57397C122.989 7.06392 123.734 8.00911 124.625 8.27145C124.965 8.27145 125.304 8.27145 125.644 8.27145C127.237 8.63794 129.019 8.38718 130.505 8.83855C133.136 9.63714 135.489 10.8794 137.626 12.2296C144.146 16.346 149.474 22.2023 153.12 29.1928C153.706 30.3193 153.961 31.3918 154.474 32.5838C155.515 34.9912 156.831 37.4679 157.865 39.8212C158.899 42.1707 159.909 44.5394 161.372 46.4954C162.143 47.5216 165.114 48.0733 166.46 48.6442C167.405 49.0455 168.956 49.4582 169.851 49.9984C171.564 51.0323 173.223 52.2629 174.824 53.3894C175.642 53.9565 178.107 55.1949 178.231 56.2173Z" fill="#00796B"/>
<path d="M127.688 13.1401C126.859 13.1246 126.272 13.2288 125.651 13.3677C125.651 13.4063 125.651 13.441 125.651 13.4834C125.69 13.4834 125.725 13.4834 125.767 13.4834C126.164 14.2936 126.859 14.8221 127.349 15.5204C127.727 16.3112 128.101 17.1021 128.479 17.893C128.518 17.8544 128.553 17.8197 128.591 17.7811C129.289 17.2873 129.613 16.5003 129.61 15.2928C129.328 14.9957 129.286 14.6254 129.042 14.2743C128.718 13.7998 128.093 13.5336 127.688 13.1401Z" fill="#00796B"/>
</svg>
