<svg width="253" height="101" viewBox="0 0 253 101" fill="none" xmlns="http://www.w3.org/2000/svg">
<path d="M90.3263 37.3944L64.563 51.649C63.5969 52.1792 63.0037 53.1663 63.0037 54.2321V82.757C63.0037 83.8228 63.5969 84.8046 64.563 85.3402L90.3315 99.6053C91.2923 100.136 92.4841 100.136 93.4449 99.6053L119.208 85.3402C120.164 84.8046 120.757 83.8228 120.757 82.757V54.2321C120.757 53.1663 120.164 52.1845 119.198 51.649L93.4397 37.3944C92.9567 37.1266 92.4159 36.9954 91.8803 36.9954C91.3396 36.9954 90.804 37.1266 90.321 37.3944H90.3263ZM222.881 63.0736L218.586 65.4468C218.423 65.536 218.329 65.6988 218.329 65.8773V70.6341C218.329 70.8126 218.428 70.9753 218.586 71.0646L222.881 73.443C223.043 73.5322 223.238 73.5322 223.4 73.443L227.695 71.0646C227.853 70.9753 227.952 70.8126 227.952 70.6341V65.8773C227.952 65.6988 227.853 65.536 227.69 65.4468L223.395 63.0736C223.316 63.0264 223.227 63.0054 223.138 63.0054C223.049 63.0054 222.959 63.0264 222.881 63.0736Z" fill="#388E3C"/>
<path d="M187.704 7.16313L175.161 0.164467C174.767 -0.0560453 174.284 -0.0507937 173.895 0.18022C173.507 0.411233 173.265 0.826005 173.265 1.27753L173.26 43.553L161.694 37.1529C161.211 36.8851 160.67 36.7538 160.134 36.7538C159.599 36.7538 159.058 36.8851 158.575 37.1529H158.58L132.817 51.4074C131.851 51.9377 131.258 52.9248 131.258 53.9853V82.5103C131.258 83.5761 131.851 84.5579 132.817 85.0934L158.585 99.3585C159.546 99.8888 160.738 99.8888 161.699 99.3585L187.462 85.0934C188.418 84.5631 189.011 83.5761 189.011 82.5103V9.38925C189.011 8.4652 188.507 7.61465 187.704 7.16313ZM172.556 75.9106L160.848 82.3948C160.413 82.6363 159.872 82.6363 159.436 82.3948L147.723 75.9106C147.276 75.6691 147.008 75.2176 147.008 74.7345V61.7663C147.008 61.2833 147.276 60.837 147.717 60.5902L159.431 54.1114H159.425C159.646 53.9906 159.887 53.9328 160.134 53.9328C160.381 53.9328 160.623 53.9958 160.843 54.1114L172.551 60.5902C172.992 60.837 173.26 61.2885 173.26 61.7715V74.7398C173.26 75.2176 172.992 75.6691 172.556 75.9106Z" fill="#37474F"/>
<path d="M90.3263 37.3944L63.0037 82.757C63.0037 83.8228 63.5969 84.8046 64.563 85.3402L90.3315 99.6053C91.2923 100.136 92.4841 100.136 93.4449 99.6053L120.757 54.2321C120.757 53.1663 120.164 52.1845 119.198 51.649L93.4397 37.3944C92.9567 37.1266 92.4159 36.9954 91.8803 36.9954C91.3396 36.9954 90.804 37.1266 90.321 37.3944" fill="#2E7D32"/>
<path d="M90.3263 37.3944L64.563 51.649C63.5969 52.1792 63.0037 53.1663 63.0037 54.2321L90.3263 99.6053C91.2871 100.136 92.4789 100.136 93.4397 99.6053L119.203 85.3402C120.164 84.8046 120.757 83.8228 120.757 82.757L93.4397 37.3944C92.9567 37.1266 92.4159 36.9954 91.8803 36.9954C91.3396 36.9954 90.804 37.1266 90.321 37.3944" fill="#4CAF50"/>
<path d="M250.455 51.4074L224.697 37.1528C224.214 36.885 223.674 36.7538 223.138 36.7538C222.602 36.7538 222.062 36.885 221.579 37.1528H221.584L195.821 51.4074C194.86 51.9377 194.261 52.9457 194.261 54.0483V82.4577C194.261 83.555 194.86 84.5683 195.821 85.0986L221.589 99.3637C222.555 99.8992 223.737 99.8992 224.703 99.3637L236.584 92.785C237.671 92.1813 237.666 90.6219 236.573 90.0234L210.721 75.9158C210.285 75.669 210.012 75.2123 210.012 74.7187V61.7715C210.012 61.2885 210.275 60.8422 210.695 60.6112L222.429 54.1218H222.424C222.644 54.001 222.886 53.9433 223.133 53.9433C223.379 53.9433 223.621 54.0063 223.842 54.1218L235.576 60.6164C235.996 60.8474 236.258 61.2937 236.258 61.7767V72.3404C236.258 72.7919 236.5 73.2119 236.894 73.4377C237.288 73.6582 237.771 73.6582 238.164 73.4324L250.755 66.1187C251.532 65.6672 252.015 64.8324 252.015 63.9294V54.0588C252.015 52.951 251.416 51.9377 250.455 51.4074ZM56.194 51.4074L30.436 37.1528C29.953 36.885 29.4122 36.7538 28.8767 36.7538C28.3411 36.7538 27.8004 36.885 27.3173 37.1528H27.3226L1.55934 51.4074C0.598535 51.9377 0 52.9457 0 54.0483V93.2418C0 93.6933 0.241514 94.1134 0.635287 94.3391C1.02906 94.5596 1.51209 94.5596 1.90586 94.3339L14.4961 87.0202C15.2731 86.5687 15.7509 85.7339 15.7509 84.8308V61.7662C15.7509 61.2832 16.0134 60.8369 16.4335 60.6059L28.1679 54.1165C28.3884 53.9958 28.6299 53.938 28.8767 53.938C29.1234 53.938 29.365 54.001 29.5855 54.1165L41.3199 60.6112C41.7399 60.8422 42.0024 61.2885 42.0024 61.7715V84.8361C42.0024 85.7391 42.4802 86.5739 43.2625 87.0255L55.8527 94.3391C56.2465 94.5649 56.7295 94.5649 57.1233 94.3444C57.5118 94.1134 57.7534 93.6933 57.7534 93.2418V54.0535C57.7534 52.951 57.1548 51.9377 56.194 51.4074Z" fill="#37474F"/>
</svg>
