<?xml version="1.0" standalone="no"?>
<!DOCTYPE svg PUBLIC "-//W3C//DTD SVG 20010904//EN"
 "http://www.w3.org/TR/2001/REC-SVG-20010904/DTD/svg10.dtd">
<svg version="1.0" xmlns="http://www.w3.org/2000/svg"
 width="48.000000pt" height="48.000000pt" viewBox="0 0 256.000000 256.000000"
 preserveAspectRatio="xMidYMid meet">

<g transform="translate(0.000000,256.000000) scale(0.100000,-0.100000)"
fill="#000000" stroke="none">
<path d="M1115 2225 c-38 -9 -113 -36 -165 -62 -80 -39 -109 -60 -186 -137
-76 -76 -98 -106 -138 -186 -54 -110 -76 -201 -76 -320 0 -274 151 -512 405
-639 104 -51 198 -73 311 -74 313 0 590 204 691 508 23 69 27 98 27 205 1 105
-3 137 -22 200 -76 240 -251 413 -497 490 -92 29 -253 35 -350 15z m323 -96
c163 -50 320 -173 389 -304 108 -206 103 -425 -15 -623 -23 -38 -73 -99 -114
-138 -207 -197 -506 -229 -756 -82 -83 48 -191 161 -234 244 -57 108 -72 173
-72 299 1 93 5 122 28 189 112 327 457 512 774 415z"/>
<path d="M1345 1769 c-126 -104 -235 -195 -242 -201 -10 -11 8 -13 90 -12 56
1 108 2 114 3 12 1 278 390 271 395 -2 2 -106 -82 -233 -185z"/>
<path d="M1092 1270 c-72 -110 -130 -200 -127 -200 5 0 435 349 470 382 19 18
17 18 -95 18 l-115 -1 -133 -199z"/>
<path d="M1060 515 l0 -205 35 0 35 0 0 54 c0 86 19 89 68 11 40 -63 43 -65
82 -65 l42 0 -56 80 c-31 44 -56 84 -56 89 0 5 21 32 46 60 l46 51 -41 0 c-37
0 -43 -4 -78 -55 -21 -30 -41 -54 -45 -55 -5 0 -8 54 -8 120 l0 120 -35 0 -35
0 0 -205z"/>
<path d="M1901 696 c-16 -19 2 -56 28 -56 28 0 47 28 34 48 -13 22 -47 27 -62
8z"/>
<path d="M1638 663 c-13 -3 -18 -15 -18 -39 0 -27 -4 -34 -20 -34 -15 0 -20
-7 -20 -25 0 -18 5 -25 20 -25 18 0 20 -7 20 -89 0 -74 3 -92 21 -115 17 -21
29 -26 65 -26 40 0 44 2 44 24 0 18 -7 25 -29 29 -34 7 -41 26 -41 115 l0 62
35 0 c30 0 35 3 35 24 0 21 -6 25 -32 28 -30 3 -33 6 -36 41 -3 36 -8 40 -44
30z"/>
<path d="M340 587 c-13 -7 -31 -24 -39 -39 -23 -41 -6 -78 53 -109 27 -15 53
-33 57 -41 19 -34 -30 -52 -93 -34 -25 7 -28 6 -28 -17 0 -29 16 -37 75 -37
58 0 91 16 106 52 19 47 2 78 -59 111 -42 23 -53 33 -50 50 3 19 9 22 50 21
37 0 48 4 52 18 8 34 -74 51 -124 25z"/>
<path d="M584 586 c-72 -32 -101 -120 -66 -199 24 -54 62 -77 124 -77 53 0
101 28 124 72 34 65 14 158 -41 194 -34 22 -103 27 -141 10z m96 -46 c48 -26
44 -144 -7 -177 -23 -15 -28 -15 -52 -2 -52 29 -66 99 -31 157 21 34 53 42 90
22z"/>
<path d="M890 582 c-19 -9 -45 -33 -58 -52 -20 -29 -23 -44 -20 -93 6 -78 42
-117 117 -125 73 -7 99 2 94 32 -4 21 -9 23 -48 18 -37 -4 -47 -1 -69 21 -28
28 -36 90 -16 126 13 25 64 45 99 38 25 -5 30 -3 33 18 4 18 0 25 -16 29 -38
10 -81 6 -116 -12z"/>
<path d="M1390 583 c-39 -20 -80 -89 -80 -136 0 -43 29 -97 64 -118 20 -12 50
-19 81 -19 73 0 97 9 93 33 -3 19 -9 21 -65 18 -51 -2 -65 1 -82 18 -12 12
-21 30 -21 41 0 19 7 20 95 20 95 0 95 0 95 25 0 35 -23 86 -48 108 -30 27
-90 32 -132 10z m98 -45 c7 -7 12 -22 12 -35 0 -21 -4 -23 -60 -23 -65 0 -72
8 -44 48 17 25 71 31 92 10z"/>
<path d="M2080 582 c-94 -47 -100 -202 -10 -256 16 -9 50 -16 79 -16 42 0 56
5 86 31 130 114 -1 319 -155 241z m114 -54 c36 -56 26 -134 -20 -165 -20 -13
-30 -14 -50 -4 -27 12 -55 66 -49 97 2 10 4 27 4 37 2 51 88 77 115 35z"/>
<path d="M1900 450 l0 -140 30 0 30 0 0 140 0 140 -30 0 -30 0 0 -140z"/>
<path d="M1784 376 c-3 -8 -4 -25 -2 -38 2 -18 9 -23 32 -23 36 0 56 27 40 53
-14 22 -62 28 -70 8z"/>
</g>
</svg>
