<svg width="112" height="101" viewBox="0 0 112 101" fill="none" xmlns="http://www.w3.org/2000/svg">
<path d="M65.3045 50.3717C65.3045 55.7489 60.9555 60.0979 55.5783 60.0979C50.2011 60.0979 45.8521 55.7489 45.8521 50.3717C45.8521 44.9945 50.2011 40.6455 55.5783 40.6455C60.9555 40.6455 65.3045 44.9945 65.3045 50.3717Z" fill="#98CCFD"/>
<path d="M55.5783 61.4875C49.448 61.4875 44.4626 56.5021 44.4626 50.3718C44.4626 44.2415 49.448 39.2561 55.5783 39.2561C61.7086 39.2561 66.694 44.2415 66.694 50.3718C66.694 56.5021 61.7086 61.4875 55.5783 61.4875ZM55.5783 42.035C50.982 42.035 47.2416 45.7754 47.2416 50.3718C47.2416 54.9681 50.982 58.7085 55.5783 58.7085C60.1747 58.7085 63.9151 54.9681 63.9151 50.3718C63.9151 45.7754 60.1747 42.035 55.5783 42.035Z" fill="#4788C7"/>
<path d="M109.767 50.3718C109.767 42.6019 101.675 35.8325 88.9476 31.5113C90.5482 24.0888 90.7678 17.4638 89.4089 12.3895C88.2751 8.16003 86.127 5.11711 83.0285 3.34972C81.1638 2.28817 79.0324 1.74628 76.6953 1.74628C70.5623 1.74628 63.0981 5.63955 55.5839 12.2812C48.0641 5.63677 40.5972 1.74072 34.4585 1.74072C32.1187 1.74072 29.99 2.27983 28.1254 3.34416C25.0269 5.11433 22.876 8.16003 21.745 12.3923C20.3861 17.4666 20.6056 24.0916 22.2035 31.5113C9.48161 35.8325 1.3894 42.6047 1.3894 50.3718C1.3894 58.1389 9.48162 64.9111 22.2063 69.2295C20.6056 76.6493 20.3861 83.2742 21.7478 88.3485C22.8788 92.5836 25.0297 95.6265 28.1309 97.3995C29.9956 98.461 32.127 99.0029 34.4641 99.0029C34.4669 99.0029 34.4641 99.0029 34.4669 99.0029C40.6027 99.0029 48.0669 95.1096 55.5811 88.4624C63.0953 95.1013 70.5595 98.9918 76.6925 98.9946C76.6953 98.9946 76.6953 98.9946 76.6953 98.9946C79.0352 98.9946 81.1638 98.4554 83.0313 97.3911C86.127 95.6237 88.2751 92.5808 89.4061 88.3513C90.765 83.277 90.5455 76.652 88.9476 69.2323C101.672 64.9139 109.767 58.1417 109.767 50.3718ZM80.2774 8.17948C82.0392 9.18545 83.3064 11.0862 84.04 13.829C85.1544 17.9863 84.9348 23.5802 83.6009 29.919C79.1658 28.7602 74.311 27.8792 69.1283 27.3123C66.0437 23.1384 62.823 19.3785 59.5688 16.0827C66.2299 10.2831 72.3463 7.3069 76.6953 7.3069C78.057 7.3069 79.2603 7.60146 80.2774 8.17948ZM71.6516 59.5061C69.837 62.6102 67.9723 65.4863 66.0854 68.1736C62.7368 68.4653 59.2298 68.6237 55.5755 68.6237C51.9185 68.6237 48.4115 68.4626 45.0601 68.1736C43.1732 65.4863 41.3086 62.6102 39.4939 59.5061C37.7265 56.4771 36.1259 53.4175 34.6836 50.3718C36.1259 47.3289 37.7265 44.2665 39.4967 41.2375C41.3114 38.1334 43.1788 35.2573 45.0657 32.5673C48.4143 32.2755 51.924 32.1171 55.5783 32.1171C59.2326 32.1171 62.7396 32.2755 66.0854 32.5673C67.9723 35.2573 69.837 38.1307 71.6516 41.2347C73.4218 44.2637 75.0252 47.3261 76.4675 50.369C75.0252 53.4175 73.4218 56.4771 71.6516 59.5061ZM79.3603 57.019C80.4997 59.8979 81.4612 62.7213 82.2532 65.453C79.502 66.17 76.5369 66.7813 73.3773 67.2732C74.4249 65.6559 75.4559 64.0107 76.4508 62.3073C77.479 60.551 78.4377 58.7864 79.3603 57.019ZM55.5783 80.8927C53.5525 78.8418 51.5016 76.5687 49.4508 74.0287C51.4627 74.1232 53.4997 74.1816 55.5783 74.1816C57.6542 74.1816 59.6911 74.1232 61.7003 74.0287C59.6522 76.5687 57.6042 78.8446 55.5783 80.8927ZM37.7738 67.2732C34.6169 66.7813 31.6518 66.17 28.9007 65.453C29.6927 62.7213 30.6514 59.9007 31.7908 57.0218C32.7134 58.7864 33.6721 60.5538 34.6975 62.31C35.6924 64.0107 36.7261 65.6559 37.7738 67.2732ZM31.7908 43.7219C30.6514 40.8429 29.6927 38.0223 28.9007 35.2906C31.6518 34.5737 34.6169 33.9623 37.7766 33.4704C36.7289 35.0878 35.6952 36.7329 34.7003 38.4336C33.6721 40.1926 32.7134 41.9572 31.7908 43.7219ZM55.5811 19.8537C57.6069 21.9018 59.655 24.1749 61.7003 26.7149C59.6911 26.6204 57.6542 26.562 55.5783 26.562C53.5025 26.562 51.4655 26.6204 49.4564 26.7149C51.5044 24.1749 53.5553 21.9018 55.5811 19.8537ZM76.4508 38.4336C75.4559 36.7301 74.4249 35.085 73.3773 33.4676C76.5369 33.9595 79.502 34.5709 82.2532 35.2878C81.4612 38.0223 80.4997 40.8429 79.3603 43.7246C78.4377 41.96 77.479 40.1926 76.4508 38.4336ZM27.1139 13.8318C27.8503 11.0834 29.1175 9.17989 30.8793 8.17114C31.8964 7.59313 33.0996 7.29856 34.4585 7.29856C38.8131 7.29856 44.9295 10.2776 51.5934 16.0827C48.3365 19.3813 45.1129 23.1384 42.0255 27.3151C36.8428 27.882 31.9881 28.7657 27.5529 29.9245C26.219 23.5802 25.9995 17.9863 27.1139 13.8318ZM6.94724 50.3718C6.94724 45.5671 13.147 40.4622 23.5735 36.8746C24.8296 41.2236 26.5053 45.7644 28.5672 50.3718C26.5053 54.9793 24.8296 59.52 23.5735 63.869C13.147 60.2814 6.94724 55.1766 6.94724 50.3718ZM34.4613 93.445C33.0996 93.445 31.8936 93.1505 30.8821 92.5752C29.1147 91.5665 27.8475 89.6629 27.1139 86.9146C25.9995 82.7573 26.219 77.1634 27.5529 70.8247C31.9881 71.9835 36.8401 72.8644 42.0228 73.4313C45.1101 77.608 48.3337 81.3679 51.5934 84.6664C44.9295 90.4688 38.8131 93.445 34.4613 93.445ZM84.0372 86.9146C83.3008 89.6574 82.0364 91.5582 80.2746 92.5641C79.2603 93.1421 78.0542 93.4367 76.6925 93.4367C72.3408 93.4367 66.2244 90.4605 59.5633 84.6637C62.8202 81.3651 66.0409 77.6052 69.1255 73.4313C74.3082 72.8644 79.1602 71.9807 83.5954 70.8247C84.932 77.1634 85.1516 82.7573 84.0372 86.9146ZM87.5776 63.8718C86.3215 59.5228 84.6458 54.982 82.5839 50.3718C84.6458 45.7616 86.3215 41.2208 87.5776 36.8718C98.0068 40.4594 104.209 45.5671 104.209 50.3718C104.209 55.1766 98.0068 60.2842 87.5776 63.8718Z" fill="#98CCFD"/>
<path d="M34.4642 100.392C31.8798 100.392 29.5177 99.7921 27.439 98.6083C24.0015 96.6408 21.6339 93.3116 20.4028 88.707C19.0912 83.8105 19.1634 77.4134 20.5973 70.1382C7.48641 65.4335 0 58.2695 0 50.3718C0 42.4741 7.48641 35.31 20.5973 30.6026C19.1606 23.3301 19.0912 16.9303 20.4028 12.0338C21.6339 7.43194 24.0015 4.10279 27.4363 2.1381C34.4391 -1.85799 44.6044 1.04598 55.5812 10.4415C66.5551 1.05432 76.7121 -1.84687 83.7177 2.14365C87.1497 4.10279 89.5173 7.42916 90.7512 12.031C92.0628 16.9303 91.9905 23.3301 90.5538 30.6026C103.668 35.3073 111.157 42.4741 111.157 50.3718C111.157 58.2695 103.668 65.4363 90.5538 70.1438C91.9933 77.4162 92.06 83.8133 90.7484 88.7125C89.5173 93.3144 87.1525 96.6408 83.7205 98.5999C76.7093 102.596 66.544 99.6865 55.5784 90.3049C47.8641 96.9103 40.5833 100.392 34.4642 100.392ZM34.4586 3.13017C32.3661 3.13017 30.4653 3.60814 28.8146 4.5502C26.0468 6.13418 24.121 8.89365 23.09 12.7508C21.8173 17.4944 21.984 23.8804 23.5652 31.2195L23.8265 32.4311L22.6537 32.8313C10.0208 37.1163 2.77892 43.5106 2.77892 50.3718C2.77892 57.2329 10.0208 63.6272 22.651 67.9151L23.8237 68.3153L23.5625 69.5269C21.9812 76.866 21.8145 83.252 23.0873 87.9956C24.1182 91.8555 26.044 94.615 28.8174 96.1989C30.4708 97.1354 32.3688 97.6134 34.4614 97.6134H34.4642C40.0553 97.6134 47.2249 93.9953 54.6586 87.4231L55.5784 86.6089L56.4982 87.4231C63.929 93.9869 71.1014 97.6051 76.6926 97.6051C78.7879 97.6051 80.6887 97.1271 82.3449 96.185C85.1072 94.6066 87.033 91.8499 88.0639 87.9928C89.3367 83.2492 89.1699 76.866 87.5887 69.5269L87.3275 68.3153L88.5002 67.9151C101.133 63.63 108.378 57.2329 108.378 50.3718C108.378 43.5079 101.133 37.1136 88.5002 32.8285L87.3275 32.4283L87.5915 31.2167C89.1727 23.8776 89.3395 17.4916 88.0667 12.748C87.033 8.88809 85.1072 6.13418 82.3394 4.55576C80.6859 3.6137 78.7879 3.13573 76.6954 3.13573C71.107 3.13573 63.9374 6.75388 56.501 13.3232L55.5812 14.1375L54.6613 13.3232C47.2249 6.7511 40.0526 3.13017 34.4586 3.13017ZM34.4614 94.8345C32.8579 94.8345 31.4212 94.4816 30.1957 93.7813C28.0949 92.5808 26.6054 90.391 25.7689 87.273C24.6351 83.0296 24.7824 77.2412 26.1913 70.5384L26.4914 69.1128L27.9003 69.4796C32.3216 70.6329 37.118 71.4999 42.1701 72.0501L42.7731 72.1168L43.1372 72.6031C46.1189 76.6353 49.298 80.3647 52.5771 83.6882L53.6165 84.7415L52.5021 85.7141C45.7521 91.5943 39.3439 94.8345 34.4614 94.8345ZM28.6312 72.5281C27.3307 78.1971 27.2918 83.0241 28.4561 86.5533C29.2287 88.8904 30.1374 90.5494 31.5713 91.3664C35.1672 93.42 42.1673 90.7078 49.5592 84.5692C46.6886 81.5679 43.9041 78.2694 41.2669 74.7429C36.8401 74.2371 32.5967 73.4924 28.6312 72.5281ZM76.6954 94.8262C71.8128 94.8262 65.4046 91.5887 58.6574 85.7113L57.5431 84.7415L58.5824 83.6882C61.8754 80.348 65.0489 76.6215 68.014 72.6059L68.3753 72.1168L68.9811 72.0501C74.036 71.4971 78.8407 70.6329 83.2564 69.4796L84.6681 69.1128L84.9654 70.5384C86.3744 77.2467 86.5216 83.0324 85.3851 87.273C84.5486 90.3882 83.0619 92.5752 80.9694 93.7702C79.7355 94.4732 78.2988 94.8262 76.6954 94.8262ZM61.5975 84.5692C68.9894 90.7022 75.9673 93.4172 79.591 91.3581C81.0166 90.5466 81.9225 88.8876 82.6951 86.5561C83.8678 83.0241 83.8205 78.1971 82.5228 72.5309C78.5573 73.4952 74.3138 74.2371 69.8815 74.7457C67.2609 78.2582 64.4793 81.554 61.5975 84.5692ZM55.5784 82.8712L54.5919 81.8708C52.4438 79.6977 50.3512 77.3551 48.3726 74.9013L46.4274 72.492L49.5176 72.6393C53.4942 72.8282 57.6626 72.8282 61.6364 72.6393L64.7238 72.492L62.7841 74.8985C60.8111 77.3412 58.7213 79.6866 56.5677 81.8653L55.5784 82.8712ZM52.516 75.5321C53.5136 76.6909 54.5391 77.8164 55.5784 78.9002C56.6177 77.8108 57.6376 76.6882 58.638 75.5321C56.6121 75.5849 54.5418 75.5849 52.516 75.5321ZM55.5784 70.0132C52.0102 70.0132 48.4338 69.8603 44.9435 69.5574L44.2987 69.5019L43.9264 68.9711C41.9228 66.1171 40.0303 63.1659 38.2991 60.2064C36.5789 57.2579 34.9393 54.1511 33.4276 50.9665L33.1442 50.3718L33.4276 49.7771C34.9393 46.5925 36.5789 43.4828 38.2991 40.5372C40.0498 37.5415 41.8922 34.6765 43.9319 31.7697L44.3043 31.2417L44.949 31.1861C51.9185 30.5803 59.2382 30.5803 66.205 31.1861L66.8497 31.2417L67.222 31.7725C69.2673 34.6904 71.1098 37.5582 72.8494 40.5372C74.5862 43.5106 76.2257 46.6175 77.7208 49.7799L78.0015 50.3718L77.7208 50.9665C76.2257 54.1261 74.5862 57.2357 72.8494 60.2092C71.1098 63.1882 69.2673 66.056 67.222 68.9739L66.8497 69.5046L66.205 69.5602C62.7202 69.8603 59.1465 70.0132 55.5784 70.0132ZM45.8271 66.8452C52.2437 67.3649 58.9159 67.3649 65.3213 66.8452C67.1748 64.1747 68.8561 61.5375 70.4539 58.8058C72.0407 56.0908 73.5441 53.2563 74.928 50.3718C73.5441 47.4873 72.0407 44.6528 70.4539 41.9378C68.8588 39.2061 67.1748 36.5689 65.3213 33.8984C58.9131 33.3787 52.2298 33.3787 45.8327 33.8984C43.9847 36.5606 42.3007 39.195 40.6945 41.9405C39.1244 44.6305 37.6182 47.465 36.2204 50.3718C37.6182 53.2758 39.1216 56.1103 40.6945 58.8058C42.2812 61.5153 44.007 64.2164 45.8271 66.8452ZM70.5206 69.1267L72.2074 66.5201C73.244 64.9194 74.2638 63.291 75.2503 61.6097C76.2674 59.8701 77.215 58.1222 78.1265 56.377L79.5327 53.687L80.6498 56.5104C81.7752 59.3533 82.7645 62.235 83.5871 65.0723L83.9845 66.4451L82.6034 66.8035C79.7772 67.5372 76.7482 68.1596 73.5913 68.6515L70.5206 69.1267ZM79.1408 60.3759C78.6573 61.254 78.1599 62.135 77.6485 63.0131C77.1817 63.8134 76.7037 64.5999 76.223 65.3779C77.6902 65.1001 79.1186 64.7972 80.5025 64.4637C80.0857 63.102 79.6299 61.7376 79.1408 60.3759ZM40.6306 69.1267L37.5599 68.6487C34.403 68.1569 31.3712 67.5344 28.5534 66.8008L27.1723 66.4423L27.5697 65.0723C28.3867 62.2461 29.3732 59.3671 30.5042 56.5132L31.6213 53.687L33.0274 56.3826C33.9362 58.1278 34.8838 59.8729 35.9009 61.6125C36.8846 63.2938 37.9072 64.9222 38.9438 66.5229L40.6306 69.1267ZM30.6487 64.4581C32.027 64.7888 33.4554 65.0945 34.9199 65.3724C34.4391 64.5971 33.9639 63.8106 33.4971 63.0103C32.983 62.135 32.4911 61.2568 32.0076 60.3759C31.5185 61.7431 31.0655 63.1048 30.6487 64.4581ZM86.6467 65.6614L86.241 64.258C85.0016 59.9563 83.3425 55.4767 81.3167 50.9415L81.0611 50.3718L81.3167 49.8049C83.3425 45.2752 85.0016 40.7929 86.2437 36.4883L86.6495 35.085L88.0334 35.5602C99.0323 39.3423 105.599 44.8806 105.599 50.3718C105.599 55.8657 99.0323 61.4013 88.0306 65.1862L86.6467 65.6614ZM84.104 50.3718C85.8547 54.3373 87.3247 58.2639 88.4919 62.0683C97.2427 58.8169 102.82 54.2956 102.82 50.3718C102.82 46.448 97.2427 41.9267 88.4919 38.6753C87.3247 42.4852 85.8519 46.4091 84.104 50.3718ZM24.5017 65.6586L23.1206 65.1834C12.1244 61.3985 5.55784 55.8629 5.55784 50.3718C5.55784 44.8806 12.1244 39.345 23.1206 35.5602L24.5017 35.085L24.9074 36.4883C26.1552 40.8067 27.8114 45.2891 29.8317 49.8049L30.0901 50.3718L29.8345 50.9387C27.8114 55.4544 26.158 59.9368 24.9102 64.2553L24.5017 65.6586ZM22.6621 38.6753C13.9113 41.9294 8.33676 46.4507 8.33676 50.3718C8.33676 54.2928 13.9113 58.8141 22.6621 62.0683C23.832 58.2472 25.3021 54.3234 27.0472 50.3718C25.3021 46.4202 23.832 42.4963 22.6621 38.6753ZM31.6185 47.0621L30.5014 44.2359C29.3732 41.382 28.3839 38.503 27.5669 35.6769L27.1695 34.3069L28.5506 33.9484C31.374 33.2147 34.403 32.5923 37.5599 32.1004L40.6333 31.6224L38.9382 34.2318C37.9017 35.8297 36.8818 37.4582 35.8953 39.1394C34.8782 40.8762 33.9306 42.6242 33.0219 44.3693L31.6185 47.0621ZM30.6487 36.2854C31.0628 37.6388 31.5185 39.0032 32.0076 40.3677C32.4911 39.4895 32.9858 38.6114 33.4971 37.7333C33.9639 36.9357 34.4391 36.1493 34.9199 35.3712C33.4554 35.6463 32.027 35.9548 30.6487 36.2854ZM79.5327 47.0621L78.1265 44.3693C77.215 42.6214 76.2674 40.8762 75.2503 39.1366C74.2666 37.4554 73.244 35.8269 72.2074 34.2263L70.5206 31.6196L73.5885 32.0976C76.7482 32.5895 79.7828 33.212 82.6006 33.9484L83.9817 34.3069L83.5843 35.6796C82.7618 38.5141 81.7752 41.3959 80.647 44.2415L79.5327 47.0621ZM76.2257 35.3684C76.7065 36.1465 77.1845 36.9329 77.6513 37.7333C78.1654 38.6114 78.6601 39.4895 79.1436 40.3705C79.6327 39.006 80.0884 37.6416 80.5053 36.2854C79.1242 35.952 77.693 35.6463 76.2257 35.3684ZM84.6598 31.6335L83.2508 31.2667C78.8407 30.1135 74.0387 29.2492 68.9755 28.6962L68.3697 28.6295L68.0085 28.1404C65.035 24.1138 61.8615 20.3845 58.5768 17.0609L57.5375 16.0077L58.6519 15.0351C67.625 7.22352 76.0006 4.14448 80.9582 6.97341C83.0563 8.17113 84.543 10.3581 85.3795 13.4705C86.5133 17.7139 86.366 23.5024 84.9571 30.208L84.6598 31.6335ZM69.8815 25.9979C74.3194 26.5064 78.56 27.2512 82.5228 28.2155C83.9595 22.9161 84.1623 18.2253 82.6978 14.1875C81.8586 11.881 81.0194 10.1997 79.5882 9.38274C75.9812 7.32634 68.995 10.0386 61.6003 16.1744C64.4709 19.1784 67.2526 22.477 69.8815 25.9979ZM26.4942 31.6335L26.1941 30.208C24.7824 23.5024 24.6351 17.7167 25.7717 13.4733C26.6081 10.3526 28.0949 8.16279 30.193 6.96786C35.1644 4.13336 43.5345 7.22074 52.5077 15.0378L53.6248 16.0105L52.5827 17.0637C49.2925 20.39 46.1189 24.1193 43.1455 28.1432L42.7842 28.6323L42.1784 28.699C37.1264 29.252 32.3216 30.1163 27.9031 31.2695L26.4942 31.6335ZM34.4586 8.68801C33.3442 8.68801 32.3716 8.91866 31.5657 9.37996C30.1374 10.1942 29.4149 11.9254 28.4561 14.1903C26.9555 17.7334 27.2084 22.5576 28.6312 28.2155C32.5995 27.2512 36.8401 26.5064 41.2725 25.9979C43.9014 22.477 46.6858 19.1812 49.562 16.1772C43.8124 11.403 38.3574 8.68801 34.4586 8.68801ZM46.433 28.2488L48.3754 25.8423C50.3485 23.3968 52.441 21.0542 54.5919 18.8755L55.5784 17.8751L56.5649 18.8755C58.7241 21.0625 60.8139 23.4052 62.7786 25.8395L64.7155 28.246L61.6309 28.1015C57.657 27.9153 53.4886 27.9153 49.5176 28.1015L46.433 28.2488ZM55.5784 25.1726C56.6066 25.1726 57.6264 25.1864 58.638 25.2115C57.6459 24.0582 56.6205 22.9355 55.5812 21.8462C54.5418 22.9327 53.5192 24.0554 52.5216 25.2115C53.5331 25.1864 54.5502 25.1726 55.5784 25.1726Z" fill="#4788C7"/>
</svg>
