<svg width="289" height="101" viewBox="0 0 289 101" fill="none" xmlns="http://www.w3.org/2000/svg">
<path d="M287.743 74.2104L280.957 75.1154C280.957 75.1154 280.504 72.4005 278.242 70.5905C275.98 68.7806 268.289 69.2331 268.289 73.7579C268.289 77.8303 271.456 77.3779 277.79 78.7353C283.671 80.0928 288.648 81.9027 288.648 90.0475C288.648 94.5724 285.481 100.002 275.527 100.002C259.24 100.002 260.597 87.7851 260.597 87.7851H267.836C267.836 87.7851 268.289 91.8575 271.003 92.7625C274.17 94.1199 279.599 93.6675 280.504 90.9525C281.409 88.2376 281.409 85.0702 272.813 84.1652C264.217 82.8077 260.597 79.1878 260.597 73.3055C261.05 67.8756 264.217 63.3507 275.527 63.3507C286.838 63.8032 287.743 74.2104 287.743 74.2104V74.2104ZM256.526 74.2104L249.739 75.1154C249.739 75.1154 249.287 72.4005 247.025 70.5905C244.762 68.7806 237.071 69.2331 237.071 73.7579C237.071 77.8303 240.238 77.3779 246.572 78.7353C252.454 80.0928 257.43 81.9027 257.43 90.0475C257.43 94.5724 254.263 100.002 244.31 100.002C228.023 100.002 229.38 87.7851 229.38 87.7851H237.071C237.071 87.7851 237.524 91.8575 240.238 92.7625C243.405 94.1199 248.834 93.6675 249.739 90.9525C250.644 88.2376 250.644 85.0702 242.048 84.1652C234.357 83.2602 230.285 80.0928 230.285 75.1154V73.3055C230.737 67.8756 233.904 63.3507 244.762 63.3507C255.168 63.8032 256.526 74.2104 256.526 74.2104V74.2104ZM218.069 86.8801H225.761V87.3326C225.308 90.0475 223.951 99.5498 210.83 99.5498C199.067 99.5498 194.996 90.5 194.996 80.9978C194.996 71.043 200.877 63.8032 211.735 63.8032C223.951 63.8032 224.856 75.5679 224.856 75.5679L217.617 76.4729C217.617 76.4729 217.164 70.138 210.83 70.138C204.497 70.138 202.234 75.1154 202.234 80.9978C202.234 86.8801 204.044 93.6675 210.378 93.6675C216.712 93.6675 218.069 86.8801 218.069 86.8801V86.8801ZM179.613 64.7082V99.0973H173.279V95.9299C173.279 95.9299 171.017 100.002 165.588 100.002C159.706 100.002 155.635 97.2874 155.182 86.8801C155.182 76.0204 161.968 73.3055 166.493 73.3055C170.565 73.3055 173.279 76.4729 173.279 76.4729V64.7082H179.613ZM173.279 86.4276C173.279 82.8077 172.827 78.7353 167.398 78.7353C161.968 78.7353 161.968 85.0702 161.968 86.8801C161.968 89.1426 162.421 94.1199 167.398 94.1199C172.374 94.1199 173.279 90.0475 173.279 86.4276V86.4276ZM150.205 81.9027V98.6448H143.419V82.3552C143.419 80.0928 142.062 78.2828 139.347 78.2828C136.633 78.2828 133.918 80.5453 133.918 82.8077V98.6448H127.132V73.3055H133.918V76.9254C133.918 76.9254 136.18 72.4005 142.967 72.853C150.658 73.7579 150.205 80.9978 150.205 81.9027ZM114.916 73.7579H121.703V99.0973H114.916V73.7579ZM114.916 64.7082H121.703V70.5905H114.916V64.7082ZM112.202 73.7579L104.963 99.0973H98.1764L93.6522 82.3552L89.1279 99.0973H82.7939L75.5551 73.7579H82.7939L86.4134 90.0475L91.39 73.7579H97.2716L101.343 90.5L104.963 73.7579H112.202ZM65.6018 64.2557H72.3882V98.6448H65.6018V64.2557ZM53.3863 73.7579H60.1727V99.0973H53.3863V73.7579ZM53.3863 64.7082H60.1727V70.5905H53.3863V64.7082ZM47.9572 82.8077V98.6448H41.6232V95.4774C41.6232 95.4774 39.8135 97.7398 37.0989 98.6448C33.0271 100.002 27.1456 99.0973 25.3359 94.5724C23.9786 90.9525 25.3359 86.8801 28.9553 85.0702C33.4795 82.8077 41.1708 83.2602 41.1708 83.2602C41.1708 83.2602 41.6232 81.4503 40.7183 80.0928C40.2659 78.7353 38.9086 78.2828 37.0989 78.2828C32.5747 78.2828 32.5747 81.4503 32.5747 81.4503L26.2407 80.9978C26.2407 80.9978 26.2407 77.8303 29.4077 75.5679C31.2174 74.2104 33.4795 73.7579 37.5514 73.7579C42.528 73.7579 47.9572 75.5679 47.9572 82.8077V82.8077ZM37.5514 94.1199C42.0756 93.215 41.6232 87.7851 41.6232 87.7851H39.8135C38.4562 87.7851 36.6465 87.7851 35.2892 88.2376C33.0271 88.6901 32.1222 89.5951 31.6698 90.5C31.2174 91.8575 31.6698 93.215 33.0271 94.1199C33.9319 94.5724 35.2892 94.5724 37.5514 94.1199V94.1199ZM28.0504 64.2557V71.043H17.6446V99.0973H9.95337V70.5905H0V64.2557H28.0504Z" fill="#252A2F"/>
<path d="M194.996 10.4096C194.996 10.4096 188.662 19.9118 177.803 18.1019C166.945 16.2919 165.136 0.00231934 145.681 0.00231934C121.703 0.00231934 118.988 20.3643 118.988 20.3643C118.988 20.3643 125.774 10.4096 136.18 12.2195C146.586 14.0295 150.658 30.3191 171.922 30.3191C193.186 30.3191 194.996 10.4096 194.996 10.4096V10.4096Z" fill="url(#paint0_linear_9_44)"/>
<path d="M169.66 40.7263C169.66 40.7263 163.326 50.2286 152.467 48.4186C141.609 46.6087 139.8 30.3191 120.345 30.3191C96.3667 30.3191 93.6521 50.6811 93.6521 50.6811C93.6521 50.6811 100.438 40.7263 110.844 42.5363C120.798 44.3462 125.322 60.6358 146.586 60.6358C167.85 60.6358 169.66 40.7263 169.66 40.7263V40.7263Z" fill="url(#paint1_linear_9_44)"/>
<defs>
<linearGradient id="paint0_linear_9_44" x1="118.775" y1="15.1607" x2="194.955" y2="15.1607" gradientUnits="userSpaceOnUse">
<stop stop-color="#45A9B3"/>
<stop offset="0.389" stop-color="#3FAEB0"/>
<stop offset="1" stop-color="#2CBBAB"/>
</linearGradient>
<linearGradient id="paint1_linear_9_44" x1="93.2992" y1="45.4775" x2="169.474" y2="45.4775" gradientUnits="userSpaceOnUse">
<stop stop-color="#45A9B3"/>
<stop offset="0.389" stop-color="#3FAEB0"/>
<stop offset="1" stop-color="#2CBBAB"/>
</linearGradient>
</defs>
</svg>
